<svg xmlns="http://www.w3.org/2000/svg" viewBox="0 0 512 512" role="img" aria-label="不思議なダンジョンもどき">
  <rect width="512" height="512" rx="96" fill="#17120f"/>
  <circle cx="256" cy="248" r="150" fill="#d7a84b" opacity=".18"/>
  <path d="M155 162h202l-24 58v154c0 28-23 51-51 51h-52c-28 0-51-23-51-51V220l-24-58z" fill="#2a4055"/>
  <path d="M180 168c12-52 46-86 76-86s64 34 76 86" fill="none" stroke="#e6c479" stroke-width="28" stroke-linecap="round"/>
  <path d="M202 226h108v144c0 18-15 33-33 33h-42c-18 0-33-15-33-33V226z" fill="#efe4d2"/>
  <path d="M221 252h70M221 296h70M221 340h70" stroke="#9d3429" stroke-width="18" stroke-linecap="round"/>
  <path d="M138 414h236" stroke="#d7a84b" stroke-width="22" stroke-linecap="round"/>
</svg>
